<svg xmlns="http://www.w3.org/2000/svg" xmlns:xlink="http://www.w3.org/1999/xlink" x="0px" y="0px" viewBox="163.4 214.8 910.1 272.5" xml:space="preserve">
<path style="fill:#004766;" d="M190.6,439v16.1h-13.8v16.1h-13.4v16.1h284.5v-16.1h-13.4v-16.1h-13.8V439H190.6z M375.3,309.7 l-3.1,124.8h29.9l-3.6-124.8H375.3z M209.4,434.5h29.9l-3.6-124.8h-23.2l0,0L209.4,434.5z M317.9,434.5h29.9l-3.6-124.8H321l0,0 L317.9,434.5z M266.8,309.7l-3.1,124.8h29.9L290,309.7H266.8z M203.1,305.2h205.2v-16.1H203.1V305.2z M305.7,214.8l-127.1,60v9.8 h254.2v-9.8L305.7,214.8z"/>
<g>
	<path style="fill:#004866;" d="M1044.1,241.9c-0.2-12.1-9.6-21.3-21.7-21.3h-0.1c-12.4,0-22.3,10.1-22,22.3
		c0.3,11.6,10.4,21.6,21.9,21.7h0.1C1034.5,264.5,1044.4,254.2,1044.1,241.9 M1073.1,296.7c-0.5-16.7-11.7-27.8-28.2-28.5
		c-7.7-0.3-15.3-0.5-23-0.5c-7.5,0-15.1,0.1-22.6,0.4c-15.7,0.6-27.4,11.4-27.7,26.1c-0.6,22.6-0.6,45.2,0.2,67.8
		c0.1,3.7,0.9,10.8,9.1,10.8c8.6,0,8.9-7,9.1-10.7c1-15.9,0.4-31.9,0.5-47.9c0-3.6,0.5-7.1,0.8-10.7c1.1,0,2.3,0.1,3.4,0.1v11.8
		c0,49.9,0.1,99.7-0.1,149.6c0,8.9,2.2,15.6,12.2,16.4c0.5,0,0.9,0.1,1.4,0.1c7.7,0,12-5.9,12-16.4c0.1-26.9,0-53.8,0-80.6
		c0-3.4,0.4-6.8,0.6-10.2c1,0.1,1.9,0.1,2.9,0.2V387c0,26.5,0,53,0,79.5c0,8.5,3.6,14.7,12.8,15c0.2,0,0.4,0,0.6,0
		c9.4,0,13-6.3,13.2-15.2c0.1-2.7,0-5.4,0-8.2V316.7v-12.3c1.1,0,2.1,0,3.2,0v11.2c0,14.8,0.1,29.6,0,44.4c-0.1,7,1.7,12.8,10,12.8
		h0.1c7.5,0,9.6-5.4,9.6-11.9C1073.3,339.6,1073.8,318.1,1073.1,296.7"/>
</g>
<rect x="541" y="313.7" style="fill:#004866;" width="304" height="27"/>
<rect x="555.5" y="397.5" style="fill:#004866;" width="304" height="27"/>
<polygon style="fill:#004866;" points="526.5,327.4 555.5,356.5 555.5,298 "/>
<polygon style="fill:#004866;" points="874,410.8 845,381.7 845,440.2 "/>
</svg>
