<svg version="1.1" id="faucet" xmlns="http://www.w3.org/2000/svg" xmlns:xlink="http://www.w3.org/1999/xlink" x="0px" y="0px"
	 viewBox="-300 492 600 600" enable-background="new -300 492 600 600" xml:space="preserve">
<path d="M-189.2,900.8c0-11.5,0-22.8,0-34.4c0.1-1.5,0.5-3.2,0.5-4.8c0.1-17.4,0.5-34.7,0.5-51.9c0-1.2,0.1-2.3,0.1-3.7
	c13.7-1,26.9-1.8,40-2.7c14.3-1,28.2-1.9,42.7-3c3.2-0.1,6.7-1.2,9.9-1.2c4.3,0,7.6,2.4,10.6,5.4c2.3,2.2,4.9,4.1,8.1,4.1
	c4.1,0,8.8,0.5,12.1-1.2c5-2.7,9.4-6.8,13.4-11c4.1-4.3,7-9.4,7.2-15.9c0.1-8,0.5-16,0.8-24c0-1.9-0.1-3.7-1.9-4.9
	c-4.8-3-5.9-7-5-12.4c0.1-1,0-2.2,0.1-3.2c0.5-1.9-0.5-2.7-2.4-3c-5.9-0.8-6.4-1.4-6.4-7.3c0-1,0-2.2,0-3.2c0-7.6,1.4-9.1,8.8-8.6
	c8.1,0.5,15.2-1.5,21.9-6.4c4.4-3.5,9.7-6.2,14.4-9.4c0.5,0,0.5-0.5,0.5-1.2c0-7.3,0-14.8,0-21.7c-1.8-1.5-3.2-2.7-4.3-4.1
	c-2.7-3.5-6.1-6.1-10.6-7.2c-9-2.2-17.9-1.8-26.8-0.1c-10.2,1.8-20.1,3.9-30.3,5.9c-4.9,1-9-1-12.4-4.3c-4.1-4.1-5.9-9.4-7.2-14.8
	c-3-12.4,1.4-21.9,12.1-26.5c7.6-3.5,15.9-4.1,24-1.8c8.4,2.2,16.6,5,25.1,6.8c9.1,1.8,17.8,0.5,25.5-5.4c6.7-5,13.9-9.4,20.6-14
	c2.2,0,4.1,0,6.2,0c7,4.8,14.3,9,20.9,14c7.9,6.1,16.6,7.2,26,5.4c6.8-1.4,13.7-3.2,20.2-5.4c8.1-2.7,16.4-3.2,24.9-0.8
	s15.1,7.6,16.4,16.6c1.4,9.1-1,17.9-6.8,25.4c-3.7,4.8-8.8,6.4-14.6,5.3c-5.4-1.2-11-2.2-16.4-3.2c-10.7-2.3-21.5-4.4-32.6-3.2
	c-7,0.8-13.3,2.7-17.7,9c-0.8,1.2-2.3,1.9-4.1,3.2c0,5.4,0.1,11.6,0,17.8c-0.1,4.1,0.1,7.3,4.1,9.7c0.8,0.5,1.4,1.4,1.9,1.9
	c8,9.7,18.3,13.7,30.7,13.3c1.2,0,2.3,0,3.5,0c2.4,0.1,4.1,1.4,4.4,3.9c0.5,3,0.8,6.1,0.8,9c-0.1,6.8-0.5,7-7.6,8.4
	c0,2.2,0,4.3,0,6.7c0,4.1-0.8,8-4.8,10.6c-1.5,1-3,2.3-4.3,3.7c-0.5,0.5-1.4,1.5-1.4,2.3c0,9.1-0.8,18.6,0.5,27.7
	c2.2,15.9,9.1,23.1,23.2,25.1c22.3,3.2,43.7,10.2,63.7,21.3c9,5,17.7,10.7,24.2,18.8c8.4,10.4,12.4,22.6,14.4,35.4
	c2.3,15.2,3.9,30.4,5.4,45.6c0.8,7.6,0.5,15.2,0.8,22.6c0,2.7-0.8,4.4-3.7,5.3c-3.7,1.2-7.3,2.7-11.1,3.9
	c-18.6,5.9-37.2,7.2-56.2,1.5c-4.4-1.4-5.3-2.3-5.4-7c0-1.4,0-2.7,0-4.1c0.5-13.7,0.1-27.3-2.3-40.9c-1.9-9.9-6.1-17.8-16.4-21.1
	c-7.3-2.3-15.1-1.5-22.6-0.5c-18.3,3-36.5,6.2-54.8,9.4c-9.4,1.5-18.8,2.7-28.1,1c-10.2-1.9-20.2-3.9-30.3-6.7
	c-11.6-3.2-23.2-3.5-34.7,1c-4.4,1.8-9,3.9-11.5,8.8c-0.5,0-1.4,0-2.2-0.1c-15.2-1.5-30.4-3.2-45.9-4.8
	C-156.9,904.1-173,902.4-189.2,900.8z"/>
</svg>
