<svg version="1.1" id="road" xmlns="http://www.w3.org/2000/svg" xmlns:xlink="http://www.w3.org/1999/xlink" x="0px" y="0px"
	 viewBox="0 0 612 792" enable-background="new 0 0 612 792" xml:space="preserve">
<path d="M538.8,520.8c-7.1-20.2-14.2-40.3-21.3-60.5c-30.7-87-61.3-173.9-91.9-260.9c-0.9-2.4-2-3.2-4.6-3.2c-8.7,0.1-17.2,0-25.9,0
	c-50.3,0-100.6,0.1-150.9,0c-2.7,0-3.8,0.9-4.7,3.3c-3.7,9.4-7.4,18.7-11.2,27.9c-35.9,89.5-71.9,178.8-107.8,268.3
	c-3.9,9.7-7.8,19.4-11.8,29.5c144.2,0,287.6,0,431.5,0C539.6,523.5,539.3,522.2,538.8,520.8z M309.6,258.7
	c2.6-12.6,5.2-25.2,7.8-37.8c0.3-1.2,0.6-2.1,1.3-2.7c0.6-0.6,1.5-0.9,2.8-0.8c3.4,0.1,6.8,0,10.6,0c2.9,16.1,5.6,31.8,8.6,48.1
	c-11.1,0-21.3,0-32.2,0.1C308.9,263.1,309.2,260.8,309.6,258.7z M311.5,329.8c1.3-6.6,2.9-13.2,4-19.8c0.5-2.7,1.6-3.9,3.9-3.9
	c0.3,0,0.7,0,1.1,0c0.3,0,0.6,0,1,0c0.9,0,1.8,0,2.8,0c0,0,0.1,0,0.1,0c0,0,0,0,0,0c9.7,0,9.7,0,11.3,9.4
	c2.8,15.4,5.5,30.7,8.3,46.1c0.2,1.6,0.4,3.3,0.6,5.2c0,0-0.1,0-0.1,0c-13.5,0-26.7,0-40.5,0C306.5,354.2,309.1,341.9,311.5,329.8z
	 M350.3,495c-17.4,0-34.3,0-51.7,0c0,0-0.1,0-0.1,0c2.3-11.8,4.7-23.4,7-34.8c2.5-12.3,5.2-24.7,7.5-37c0.7-3.7,1.9-5.7,5.7-5.6
	c0.3,0,0.6,0,0.9,0c0.1,0,0.3,0,0.4,0c5.2,0.4,10.6,0.1,16.3,0.1c4.7,26,9.3,51.5,14,77.2C350.4,495,350.3,495,350.3,495z"/>
</svg>
