<svg version="1.1" id="school" xmlns="http://www.w3.org/2000/svg" xmlns:xlink="http://www.w3.org/1999/xlink" x="0px" y="0px"
	 viewBox="0 0 600 600" enable-background="new 0 0 600 600" xml:space="preserve">
	<path d="M149.6,430.9c-3.2,0-6.4,0-9.6,0c-1.2-0.4-2.4-0.8-3.6-1.2c-4.8-1.6-8-5.3-7.8-9.3c0.6-9.3,1.3-18.5,2.2-27.7
		c2.4-23.3,6.9-46.5,0.4-69.8c-0.8-2.9-2-5.9-3.8-8.3c-4.3-5.7-3.8-12.4,1.4-17.6c1.4-1.4,2.5-3.8,2.6-5.7
		c0.2-9.9-0.2-19.7-0.1-29.6c0.1-3.3-1-4.8-4.1-5.8c-28-9.8-55.9-19.7-83.9-29.6c-1.4-0.5-2.7-1.1-5.1-2
		c75.4-16.6,149.4-33,223.5-49.3c10-2.2,19.9-4.7,29.9-7c1.7,0,3.5,0,5.2,0c0.8,0.3,1.5,0.7,2.3,0.9c29.1,5.7,58.3,11.3,87.4,16.9
		c47.3,9.2,94.7,18.4,142,27.5c10.3,2,20.6,4,32.1,6.3c-2.5,1.1-3.9,1.7-5.4,2.3c-44.7,17.2-89.5,34.3-134.2,51.5
		c-2.1,0.8-4.5,1.1-4,4.5c0.9,6.9,1.7,13.8,2.1,20.8c0.6,11,1.3,21.9,1.2,32.9c-0.1,8-3.5,14.6-10.7,18.8c-4.4,2.5-8.6,5.4-13.3,7.3
		c-16.4,6.8-33.7,10.3-51.2,12.9c-27.1,4.1-54.3,4.3-81.5,0.8c-20-2.6-39.3-8.2-58.8-13.2c-21.2-5.4-32.4-30.2-30.4-46.2
		c1.4-11.5,1.6-23.2,2.5-34.7c0.2-3-0.9-4-3.5-4.8c-9.7-3.3-19.4-6.8-29.1-10.3c-1.1-0.4-2.3-0.6-3.6-1c-0.2,0.9-0.4,1.3-0.4,1.7
		c0.3,10,0.5,20,1,30c0.1,1.1,1.4,2.3,2.4,3.1c6.1,4.5,7.5,10.4,4.1,17.2c-0.6,1.2-1.1,2.8-0.9,4.1c1.1,7.7,1.9,15.5,3.7,23.1
		c2.6,11.4,6.2,22.6,8.8,34c3,12.9,5.7,26,8.3,39c0.9,4.7-1.2,8.7-5.2,11.2C158.5,426.9,153.9,428.7,149.6,430.9z"/>
</svg>
