<?xml version="1.0" encoding="utf-8"?>
<!-- Generator: Adobe Illustrator 17.1.0, SVG Export Plug-In . SVG Version: 6.00 Build 0)  -->
<!DOCTYPE svg PUBLIC "-//W3C//DTD SVG 1.1//EN" "http://www.w3.org/Graphics/SVG/1.1/DTD/svg11.dtd">
<svg version="1.1" id="two-way-communication-graph"
	 xmlns="http://www.w3.org/2000/svg" xmlns:xlink="http://www.w3.org/1999/xlink" x="0px" y="0px" viewBox="0 0 751.8 233.2"
	 enable-background="new 0 0 751.8 233.2" xml:space="preserve">
<path id="gov" fill="#FFFFFF" d="M22,181.2v13.1H10.8v13.1H0v13.1h230v-13.1h-10.8v-13.1H208v-13.1H22z M171.3,76.7l-2.6,101h24.2
	l-3-101C190,76.7,171.3,76.7,171.3,76.7z M37.1,177.5h24.2l-3-101H39.6l0,0L37.1,177.5z M124.9,177.5h24.2l-3-101h-18.7l0,0
	L124.9,177.5z M83.5,76.7l-2.6,101h24.2l-3-101H83.5z M32.1,73.1h165.8V60H32.1V73.1z M115,0L12.3,48.5v7.9h205.5v-7.9L115,0z"/>
<polygon id="arrow-top" fill="#FFFFFF" points="467.3,88.4 490.7,64.6 490.7,64.3 311.3,64.3 311.3,64.6 287.7,88.4 311.3,111.9 
	311.3,112.1 490.7,112.1 490.7,111.9 "/>
<polygon id="arrow-bottom" fill="#FFFFFF" points="499.2,152.8 475.8,129.4 475.8,129.1 296.2,129.1 319.5,152.8 295.8,176.6 
	295.8,176.7 475.8,176.7 475.8,176.6 "/>
<g id="people">
	<path fill="#FFFFFF" d="M575.4,54.2L575.4,54.2c8.1,0,14.7-6.9,14.5-15.1c-0.1-8.1-6.3-14.1-14.5-14.3h-0.1
		c-8.2,0-14.9,6.7-14.7,14.9C561,47.5,567.7,54.1,575.4,54.2z"/>
	<path fill="#FFFFFF" d="M646.3,54.2L646.3,54.2c8.1,0,14.7-6.9,14.5-15.1c-0.1-8.1-6.3-14.1-14.5-14.3l0,0
		c-8.2,0-14.9,6.7-14.7,14.9C631.9,47.5,638.6,54.1,646.3,54.2z"/>
	<path fill="#FFFFFF" d="M717.6,54.2L717.6,54.2c8.1,0,14.7-6.9,14.5-15.1C732,31,725.8,25,717.6,24.8l0,0
		c-8.2,0-14.9,6.7-14.7,14.9C703.2,47.5,710,54.1,717.6,54.2z"/>
	<path fill="#FFFFFF" d="M582,145.2c-1.6,0-3.8-0.3-5.5-1.7c0,15.2,0,30.4,0,45.6c0,5.7,2.4,9.8,8.5,10c0.1,0,0.3,0,0.4,0
		c1.2,0,2.2-0.1,3.1-0.4c0.1-18.7,0.1-37.6,0.1-56C587.2,144.2,585.2,145.2,582,145.2z"/>
	<path fill="#FFFFFF" d="M573.2,135.5c-0.5-14.3-0.5-29.5-0.1-45.4c0.3-11.2,9.2-19.7,21.1-20.1c1.9-0.1,3.8-0.1,5.8-0.3
		c-4.3-3-7.3-7.8-7.7-13.1c-0.5,0-1.1-0.1-1.7-0.1c-5.1-0.3-10.2-0.3-15.3-0.3c-5,0-10,0.1-15.1,0.3c-10.5,0.4-18.3,7.5-18.6,17.5
		c-0.4,15.1-0.4,30.2,0.1,45.2c0.1,2.4,0.5,7.1,6.1,7.1c5.8,0,5.9-4.6,6.1-7.1c0.7-10.6,0.3-21.3,0.3-31.9c0-2.3,0.3-4.7,0.5-7.1
		c0.7,0,1.5,0.1,2.3,0.1v7.8c0,33.2,0.1,66.5-0.1,99.7c0,5.9,1.5,10.4,8.1,11c0.3,0,0.7,0.1,0.9,0.1c5.1,0,7.9-3.9,7.9-10.9
		c0.1-16,0-31.9,0-47.9C573.5,138.9,573.2,137.4,573.2,135.5z"/>
	<path fill="#FFFFFF" d="M751.6,75.6c-0.3-11.2-7.8-18.6-18.7-19c-5.1-0.3-10.2-0.3-15.3-0.3c-5,0-10,0.1-15.1,0.3
		c-1.7,0-3.4,0.3-5,0.8c-0.4,4-2.2,7.8-5,10.6c-0.7,0.7-1.5,1.3-2.3,1.9c1.9,0,3.6,0.1,5.4,0.1c12.5,0.5,21,9,21.3,21.7
		c0.4,12,0.3,24.1,0,35.9c0.5,0,1.1,0.1,1.6,0.1v8.3c0,17.6,0,35.3,0,53c0,5.7,2.4,9.8,8.5,10c0.1,0,0.3,0,0.4,0
		c6.2,0,8.6-4.2,8.7-10.1c0-1.7,0-3.6,0-5.4V88.7v-8.2c0.7,0,1.5,0,2.2,0V88c0,9.8,0.1,19.8,0,29.6c0,4.7,1.1,8.5,6.6,8.6h0.1
		c5,0,6.3-3.6,6.3-7.9C751.7,104.2,752,89.9,751.6,75.6z"/>
	<path fill="#FFFFFF" d="M707.7,145.2c-2.6,0-4.6-0.7-6.1-2v53.4c1.2,1.3,3.1,2.2,5.7,2.4c0.3,0,0.7,0.1,0.9,0.1
		c5.1,0,7.9-3.9,7.9-10.9c0.1-16.4,0-32.7,0-49.1C714.7,144.6,710,145.2,707.7,145.2z"/>
	<path fill="#FFFFFF" d="M645.1,56.3c8.6,0.1,15.3,6.1,16.8,14.1c0.9-0.1,2-0.3,3-0.3c1.9-0.1,3.8-0.1,5.8-0.3
		c-4.3-3-7.3-7.8-7.7-13.1c-0.5,0-1.1-0.1-1.7-0.1c-5.1-0.3-10.2-0.3-15.3-0.3C645.8,56.3,645.5,56.3,645.1,56.3z"/>
	<path fill="#FFFFFF" d="M619.3,69.9c1.9,0,3.6,0.1,5.4,0.1c1.1,0,2.2,0.1,3.2,0.4c0.5-3.4,2.2-6.3,4.6-8.9
		c3.2-3.4,7.5-5.2,12.2-5.2c-4.6,0-9.2,0.1-13.9,0.3c-1.5,0-3,0.3-4.3,0.5c-0.4,4-2.2,7.8-5.1,10.8
		C620.9,68.6,620.1,69.3,619.3,69.9z"/>
	<path fill="#FFFFFF" d="M609.4,70.4L609.4,70.4c8.1,0,14.7-6.9,14.5-15.1c-0.1-8.1-6.3-14.1-14.5-14.3h-0.1
		c-8.2,0-14.9,6.7-14.7,14.9C595,63.7,601.8,70.3,609.4,70.4z"/>
	<path fill="#FFFFFF" d="M629.5,88c1.9-0.1,3.8-0.1,5.8-0.3c-4.4-3.1-7.5-8.2-7.7-13.9c0-0.3,0-0.5,0-0.8c-0.9-0.1-2-0.3-3-0.4
		c-5.1-0.3-10.2-0.3-15.3-0.3c-5,0-10,0.1-15.1,0.3c-10.5,0.4-18.3,7.5-18.6,17.5c-0.4,15.1-0.4,30.2,0.1,45.2
		c0.1,2.4,0.5,7.1,6.1,7.1c5.8,0,5.9-4.6,6.1-7.1c0.7-10.6,0.3-21.3,0.3-31.9c0-2.3,0.3-4.7,0.5-7.1c0.7,0,1.5,0.1,2.3,0.1v7.8
		c0,33.2,0.1,66.5-0.1,99.7c0,5.9,1.5,10.4,8.1,11c0.3,0,0.7,0.1,0.9,0.1c5.1,0,7.9-3.9,7.9-10.9c0.1-17.9,0-35.8,0-53.7
		c0-1.6,0.1-3.2,0.3-4.7c-0.3-12-0.3-24.6,0.1-37.6C608.8,96.9,617.6,88.6,629.5,88z"/>
	<path fill="#FFFFFF" d="M617.4,163.3c-2,0-5-0.5-6.9-3.2c0,15.1,0,30.2,0,45.2c0,5.7,2.4,9.8,8.5,10c0.1,0,0.3,0,0.4,0
		c1.7,0,3.2-0.4,4.4-0.9c0-17.9,0.1-35.9,0.1-53.7C622.6,162.2,620.6,163.3,617.4,163.3z"/>
	<path fill="#FFFFFF" d="M680.4,70.4L680.4,70.4c8.1,0,14.7-6.9,14.5-15.1c-0.1-8.1-6.3-14.1-14.5-14.3h-0.1
		c-8.2,0-14.9,6.7-14.7,14.9C666,63.7,672.7,70.3,680.4,70.4z"/>
	<path fill="#FFFFFF" d="M672.3,163.3c-2.6,0-4.6-0.7-6.1-2v52.9c1.1,0.5,2.3,0.8,3.8,0.9c0.3,0,0.7,0.1,0.9,0.1
		c5.1,0,7.9-3.9,7.9-10.9c0-14.5,0-29.2,0-43.7C676.9,162.9,673.9,163.3,672.3,163.3z"/>
	<path fill="#FFFFFF" d="M707.7,142.5L707.7,142.5c5.1,0,6.5-3.6,6.5-7.9c0.3-14.3,0.5-28.7,0.1-42.9c-0.3-11.2-7.8-18.6-18.7-19
		c-5.1-0.3-10.2-0.3-15.3-0.3c-5,0-10,0.1-15.1,0.3c-0.9,0-2,0.1-3,0.3c0,0,0,0,0,0.1c0,4.7-1.9,9.4-5.1,12.8
		c-0.7,0.7-1.5,1.3-2.3,1.9c1.9,0,3.6,0.1,5.4,0.1c12.5,0.5,21,9,21.3,21.7c0.4,14.4,0.1,28.9-0.1,43.1c0,0.7,0,1.2-0.1,1.7
		c0,16.8,0,33.8,0,50.7c0,5.7,2.4,9.8,8.5,10c0.1,0,0.3,0,0.4,0c6.2,0,8.6-4.2,8.7-10.1c0-1.7,0-3.6,0-5.4v-94.5v-8.2
		c0.7,0,1.5,0,2.2,0v7.5c0,9.8,0.1,19.8,0,29.6C701.1,138.8,702.2,142.5,707.7,142.5z"/>
	<path fill="#FFFFFF" d="M660.2,90.7c-5.1-0.3-10.2-0.3-15.3-0.3c-5,0-10,0.1-15.1,0.3c-10.5,0.4-18.3,7.5-18.6,17.5
		c-0.4,15.1-0.4,30.2,0.1,45.2c0.1,2.4,0.5,7.1,6.1,7.1c5.8,0,5.9-4.6,6.1-7.1c0.7-10.6,0.3-21.3,0.3-31.9c0-2.3,0.3-4.7,0.5-7.1
		c0.7,0,1.5,0.1,2.3,0.1v7.8c0,33.2,0.1,66.5-0.1,99.7c0,5.9,1.5,10.4,8.1,11c0.3,0,0.7,0.1,0.9,0.1c5.1,0,7.9-3.9,7.9-10.9
		c0.1-17.9,0-35.8,0-53.7c0-2.3,0.3-4.6,0.4-6.7c0.7,0.1,1.3,0.1,1.9,0.1v8.3c0,17.6,0,35.3,0,53c0,5.7,2.4,9.8,8.5,10
		c0.1,0,0.3,0,0.4,0c6.2,0,8.6-4.2,8.7-10.1c0-1.7,0-3.6,0-5.4v-94.6v-8c0.7,0,1.5,0,2.2,0v7.5c0,9.8,0.1,19.8,0,29.6
		c0,4.7,1.1,8.5,6.6,8.6h0.1c5,0,6.3-3.6,6.3-7.9c0.3-14.3,0.5-28.7,0.1-42.9C678.6,98.5,671.1,91.3,660.2,90.7z"/>
	<path fill="#FFFFFF" d="M645.1,59L645.1,59c-8.3,0-14.9,6.7-14.7,14.9c0.3,7.8,7,14.4,14.7,14.5h0.1c7.9,0,14.5-6.9,14.5-15.1
		C659.4,65.1,653.2,59.1,645.1,59z"/>
</g>
</svg>
