<svg version="1.1" id="two-way-communication-graph" xmlns="http://www.w3.org/2000/svg" xmlns:xlink="http://www.w3.org/1999/xlink" x="0px" y="0px"
	 viewBox="-174 246 960 300" enable-background="new -174 246 960 300" xml:space="preserve">
<path id="gov" d="M-62.8,462.1v13.1h-11.2v13.1h-10.8v13.1h230v-13.1h-10.8v-13.1h-11.2v-13.1
	C123.2,462.1-62.8,462.1-62.8,462.1z M86.5,357.6l-2.6,101h24.2l-3-101C105.2,357.6,86.5,357.6,86.5,357.6z M-47.7,458.4h24.2
	l-3-101h-18.7l0,0L-47.7,458.4z M40.1,458.4h24.2l-3-101H42.6l0,0L40.1,458.4z M-1.3,357.6l-2.6,101h24.2l-3-101H-1.3z M-52.7,354
	h165.8v-13.1H-52.7V354z M30.2,280.9l-102.7,48.5v7.9h205.5v-7.9L30.2,280.9z"/>

<polygon id="arrow-top" points="382.5,369.3 405.9,345.5 405.9,345.2 226.5,345.2 226.5,345.5 202.9,369.3 
	226.5,392.8 226.5,393 405.9,393 405.9,392.8 "/>

<polygon id="arrow-bottom" points="414.4,433.7 391,410.3 391,410 211.4,410 234.7,433.7 211,457.5 211,457.6 
	391,457.6 391,457.5 "/>

<g id="people">
	<path d="M490.6,335.1L490.6,335.1c8.1,0,14.7-6.9,14.5-15.1c-0.1-8.1-6.3-14.1-14.5-14.3h-0.1
		c-8.2,0-14.9,6.7-14.7,14.9C476.2,328.4,482.9,335,490.6,335.1z"/>
	<path d="M561.5,335.1L561.5,335.1c8.1,0,14.7-6.9,14.5-15.1c-0.1-8.1-6.3-14.1-14.5-14.3l0,0
		c-8.2,0-14.9,6.7-14.7,14.9C547.1,328.4,553.8,335,561.5,335.1z"/>
	<path d="M632.8,335.1L632.8,335.1c8.1,0,14.7-6.9,14.5-15.1c-0.1-8.1-6.3-14.1-14.5-14.3l0,0
		c-8.2,0-14.9,6.7-14.7,14.9C618.4,328.4,625.2,335,632.8,335.1z"/>
	<path d="M497.2,426.1c-1.6,0-3.8-0.3-5.5-1.7c0,15.2,0,30.4,0,45.6c0,5.7,2.4,9.8,8.5,10c0.1,0,0.3,0,0.4,0
		c1.2,0,2.2-0.1,3.1-0.4c0.1-18.7,0.1-37.6,0.1-56C502.4,425.1,500.4,426.1,497.2,426.1z"/>
	<path d="M488.4,416.4c-0.5-14.3-0.5-29.5-0.1-45.4c0.3-11.2,9.2-19.7,21.1-20.1c1.9-0.1,3.8-0.1,5.8-0.3
		c-4.3-3-7.3-7.8-7.7-13.1c-0.5,0-1.1-0.1-1.7-0.1c-5.1-0.3-10.2-0.3-15.3-0.3c-5,0-10,0.1-15.1,0.3c-10.5,0.4-18.3,7.5-18.6,17.5
		c-0.4,15.1-0.4,30.2,0.1,45.2c0.1,2.4,0.5,7.1,6.1,7.1c5.8,0,5.9-4.6,6.1-7.1c0.7-10.6,0.3-21.3,0.3-31.9c0-2.3,0.3-4.7,0.5-7.1
		c0.7,0,1.5,0.1,2.3,0.1v7.8c0,33.2,0.1,66.5-0.1,99.7c0,5.9,1.5,10.4,8.1,11c0.3,0,0.7,0.1,0.9,0.1c5.1,0,7.9-3.9,7.9-10.9
		c0.1-16,0-31.9,0-47.9C488.7,419.8,488.4,418.3,488.4,416.4z"/>
	<path d="M666.8,356.5c-0.3-11.2-7.8-18.6-18.7-19c-5.1-0.3-10.2-0.3-15.3-0.3c-5,0-10,0.1-15.1,0.3
		c-1.7,0-3.4,0.3-5,0.8c-0.4,4-2.2,7.8-5,10.6c-0.7,0.7-1.5,1.3-2.3,1.9c1.9,0,3.6,0.1,5.4,0.1c12.5,0.5,21,9,21.3,21.7
		c0.4,12,0.3,24.1,0,35.9c0.5,0,1.1,0.1,1.6,0.1v8.3c0,17.6,0,35.3,0,53c0,5.7,2.4,9.8,8.5,10c0.1,0,0.3,0,0.4,0
		c6.2,0,8.6-4.2,8.7-10.1c0-1.7,0-3.6,0-5.4v-94.8v-8.2c0.7,0,1.5,0,2.2,0v7.5c0,9.8,0.1,19.8,0,29.6c0,4.7,1.1,8.5,6.6,8.6h0.1
		c5,0,6.3-3.6,6.3-7.9C666.9,385.1,667.2,370.8,666.8,356.5z"/>
	<path d="M622.9,426.1c-2.6,0-4.6-0.7-6.1-2v53.4c1.2,1.3,3.1,2.2,5.7,2.4c0.3,0,0.7,0.1,0.9,0.1
		c5.1,0,7.9-3.9,7.9-10.9c0.1-16.4,0-32.7,0-49.1C629.9,425.5,625.2,426.1,622.9,426.1z"/>
	<path d="M560.3,337.2c8.6,0.1,15.3,6.1,16.8,14.1c0.9-0.1,2-0.3,3-0.3c1.9-0.1,3.8-0.1,5.8-0.3
		c-4.3-3-7.3-7.8-7.7-13.1c-0.5,0-1.1-0.1-1.7-0.1c-5.1-0.3-10.2-0.3-15.3-0.3C561,337.2,560.7,337.2,560.3,337.2z"/>
	<path d="M534.5,350.8c1.9,0,3.6,0.1,5.4,0.1c1.1,0,2.2,0.1,3.2,0.4c0.5-3.4,2.2-6.3,4.6-8.9
		c3.2-3.4,7.5-5.2,12.2-5.2c-4.6,0-9.2,0.1-13.9,0.3c-1.5,0-3,0.3-4.3,0.5c-0.4,4-2.2,7.8-5.1,10.8
		C536.1,349.5,535.3,350.2,534.5,350.8z"/>
	<path d="M524.6,351.3L524.6,351.3c8.1,0,14.7-6.9,14.5-15.1c-0.1-8.1-6.3-14.1-14.5-14.3h-0.1
		c-8.2,0-14.9,6.7-14.7,14.9C510.2,344.6,517,351.2,524.6,351.3z"/>
	<path d="M544.7,368.9c1.9-0.1,3.8-0.1,5.8-0.3c-4.4-3.1-7.5-8.2-7.7-13.9c0-0.3,0-0.5,0-0.8c-0.9-0.1-2-0.3-3-0.4
		c-5.1-0.3-10.2-0.3-15.3-0.3c-5,0-10,0.1-15.1,0.3c-10.5,0.4-18.3,7.5-18.6,17.5c-0.4,15.1-0.4,30.2,0.1,45.2
		c0.1,2.4,0.5,7.1,6.1,7.1c5.8,0,5.9-4.6,6.1-7.1c0.7-10.6,0.3-21.3,0.3-31.9c0-2.3,0.3-4.7,0.5-7.1c0.7,0,1.5,0.1,2.3,0.1v7.8
		c0,33.2,0.1,66.5-0.1,99.7c0,5.9,1.5,10.4,8.1,11c0.3,0,0.7,0.1,0.9,0.1c5.1,0,7.9-3.9,7.9-10.9c0.1-17.9,0-35.8,0-53.7
		c0-1.6,0.1-3.2,0.3-4.7c-0.3-12-0.3-24.6,0.1-37.6C524,377.8,532.8,369.5,544.7,368.9z"/>
	<path d="M532.6,444.2c-2,0-5-0.5-6.9-3.2c0,15.1,0,30.2,0,45.2c0,5.7,2.4,9.8,8.5,10c0.1,0,0.3,0,0.4,0
		c1.7,0,3.2-0.4,4.4-0.9c0-17.9,0.1-35.9,0.1-53.7C537.8,443.1,535.8,444.2,532.6,444.2z"/>
	<path d="M595.6,351.3L595.6,351.3c8.1,0,14.7-6.9,14.5-15.1c-0.1-8.1-6.3-14.1-14.5-14.3h-0.1
		c-8.2,0-14.9,6.7-14.7,14.9C581.2,344.6,587.9,351.2,595.6,351.3z"/>
	<path d="M587.5,444.2c-2.6,0-4.6-0.7-6.1-2v52.9c1.1,0.5,2.3,0.8,3.8,0.9c0.3,0,0.7,0.1,0.9,0.1
		c5.1,0,7.9-3.9,7.9-10.9c0-14.5,0-29.2,0-43.7C592.1,443.8,589.1,444.2,587.5,444.2z"/>
	<path d="M622.9,423.4L622.9,423.4c5.1,0,6.5-3.6,6.5-7.9c0.3-14.3,0.5-28.7,0.1-42.9c-0.3-11.2-7.8-18.6-18.7-19
		c-5.1-0.3-10.2-0.3-15.3-0.3c-5,0-10,0.1-15.1,0.3c-0.9,0-2,0.1-3,0.3c0,0,0,0,0,0.1c0,4.7-1.9,9.4-5.1,12.8
		c-0.7,0.7-1.5,1.3-2.3,1.9c1.9,0,3.6,0.1,5.4,0.1c12.5,0.5,21,9,21.3,21.7c0.4,14.4,0.1,28.9-0.1,43.1c0,0.7,0,1.2-0.1,1.7
		c0,16.8,0,33.8,0,50.7c0,5.7,2.4,9.8,8.5,10c0.1,0,0.3,0,0.4,0c6.2,0,8.6-4.2,8.7-10.1c0-1.7,0-3.6,0-5.4V386v-8.2
		c0.7,0,1.5,0,2.2,0v7.5c0,9.8,0.1,19.8,0,29.6C616.3,419.7,617.4,423.4,622.9,423.4z"/>
	<path d="M575.4,371.6c-5.1-0.3-10.2-0.3-15.3-0.3c-5,0-10,0.1-15.1,0.3c-10.5,0.4-18.3,7.5-18.6,17.5
		c-0.4,15.1-0.4,30.2,0.1,45.2c0.1,2.4,0.5,7.1,6.1,7.1c5.8,0,5.9-4.6,6.1-7.1c0.7-10.6,0.3-21.3,0.3-31.9c0-2.3,0.3-4.7,0.5-7.1
		c0.7,0,1.5,0.1,2.3,0.1v7.8c0,33.2,0.1,66.5-0.1,99.7c0,5.9,1.5,10.4,8.1,11c0.3,0,0.7,0.1,0.9,0.1c5.1,0,7.9-3.9,7.9-10.9
		c0.1-17.9,0-35.8,0-53.7c0-2.3,0.3-4.6,0.4-6.7c0.7,0.1,1.3,0.1,1.9,0.1v8.3c0,17.6,0,35.3,0,53c0,5.7,2.4,9.8,8.5,10
		c0.1,0,0.3,0,0.4,0c6.2,0,8.6-4.2,8.7-10.1c0-1.7,0-3.6,0-5.4v-94.6V396c0.7,0,1.5,0,2.2,0v7.5c0,9.8,0.1,19.8,0,29.6
		c0,4.7,1.1,8.5,6.6,8.6h0.1c5,0,6.3-3.6,6.3-7.9c0.3-14.3,0.5-28.7,0.1-42.9C593.8,379.4,586.3,372.2,575.4,371.6z"/>
	<path d="M560.3,339.9L560.3,339.9c-8.3,0-14.9,6.7-14.7,14.9c0.3,7.8,7,14.4,14.7,14.5h0.1
		c7.9,0,14.5-6.9,14.5-15.1C574.6,346,568.4,340,560.3,339.9z"/>
</g>
</svg>
